<svg xmlns="http://www.w3.org/2000/svg" width="760" height="364" viewBox="0 0 760 364" role="img" aria-label="4비트로 반올림만 해도 정확도는 거의 그대로">
<title>4비트로 반올림만 해도 정확도는 거의 그대로</title>
<style>
svg{--surface:#fcfcfb;--ink:#0b0b0b;--ink2:#52514e;--muted:#8a8984;--grid:#e6e5e1;--rule:#c9c8c3;--s1:#2a78d6;--s2:#eb6834;--faint:#d9d8d3}
@media (prefers-color-scheme:dark){svg{--surface:#1a1a19;--ink:#ffffff;--ink2:#c3c2b7;--muted:#8f8e88;--grid:#343431;--rule:#4a4945;--s1:#3987e5;--s2:#d95926;--faint:#4a4945}}
text{font-family:'Noto Sans KR','Apple SD Gothic Neo','Malgun Gothic',sans-serif;fill:var(--ink);font-size:13px}
.bg{fill:var(--surface)} .t2{fill:var(--ink2)} .mu{fill:var(--muted);font-size:11px}
.ttl{font-size:16px;font-weight:700} .sub{fill:var(--ink2);font-size:12.5px}
.grid{stroke:var(--grid);stroke-width:1} .rule{stroke:var(--rule);stroke-width:1}
.s1f{fill:var(--s1)} .s2f{fill:var(--s2)} .s1s{stroke:var(--s1)} .s2s{stroke:var(--s2)}
.ring{stroke:var(--surface);stroke-width:2} .ref{stroke:var(--ink2);stroke-width:1.5}
.faintf{fill:var(--faint)} .fainte{stroke:var(--faint)} .inkS{stroke:var(--ink2)}
.b{font-weight:700}
</style>
<rect class="bg" x="0" y="0" width="760" height="364" rx="10"/>
<text x="24.0" y="34.0" text-anchor="start" class="ttl">4비트로 반올림만 해도 정확도는 거의 그대로</text>
<text x="24.0" y="55.0" text-anchor="start" class="sub">Qwen3-32B, NVFP4 가중치 RTN(보정 데이터 없음). 0-shot 정확도 W4 − BF16 (%p)</text>
<line class="grid" x1="190.0" y1="86" x2="190.0" y2="278"/>
<text x="190.0" y="294.0" text-anchor="middle" class="mu">-3</text>
<line class="grid" x1="292.5" y1="86" x2="292.5" y2="278"/>
<text x="292.5" y="294.0" text-anchor="middle" class="mu">-2</text>
<line class="grid" x1="395.0" y1="86" x2="395.0" y2="278"/>
<text x="395.0" y="294.0" text-anchor="middle" class="mu">-1</text>
<line class="ref" x1="497.5" y1="86" x2="497.5" y2="278"/>
<text x="497.5" y="294.0" text-anchor="middle" class="mu">0</text>
<line class="grid" x1="600.0" y1="86" x2="600.0" y2="278"/>
<text x="600.0" y="294.0" text-anchor="middle" class="mu">+1</text>
<text x="176.0" y="100.0" text-anchor="end">ARC-Challenge</text>
<line x1="369.4" y1="96" x2="600.0" y2="96" style="stroke:var(--rule);stroke-width:6;stroke-linecap:round"/>
<circle class="s1f ring" cx="514.9" cy="96" r="6"/>
<text x="620.0" y="100.0" text-anchor="start" class="t2" style="font-size:12px">+0.17  (61.09 → 61.26)</text>
<text x="176.0" y="132.0" text-anchor="end">ARC-Easy</text>
<line x1="410.4" y1="128" x2="566.2" y2="128" style="stroke:var(--rule);stroke-width:6;stroke-linecap:round"/>
<circle class="s2f ring" cx="488.3" cy="128" r="6"/>
<text x="620.0" y="132.0" text-anchor="start" class="t2" style="font-size:12px">-0.09  (83.42 → 83.33)</text>
<text x="176.0" y="164.0" text-anchor="end">HellaSwag</text>
<line x1="437.0" y1="160" x2="514.9" y2="160" style="stroke:var(--rule);stroke-width:6;stroke-linecap:round"/>
<circle class="s2f ring" cx="476.0" cy="160" r="6"/>
<text x="620.0" y="164.0" text-anchor="start" class="t2" style="font-size:12px">-0.21  (82.66 → 82.45)</text>
<text x="176.0" y="196.0" text-anchor="end">MMLU</text>
<line x1="418.6" y1="192" x2="488.3" y2="192" style="stroke:var(--rule);stroke-width:6;stroke-linecap:round"/>
<circle class="s2f ring" cx="453.4" cy="192" r="6"/>
<text x="620.0" y="196.0" text-anchor="start" class="t2" style="font-size:12px">-0.43  (80.77 → 80.34)</text>
<text x="176.0" y="228.0" text-anchor="end" class="b">WinoGrande</text>
<line x1="190.0" y1="224" x2="387.8" y2="224" style="stroke:var(--rule);stroke-width:6;stroke-linecap:round"/>
<circle class="s2f ring" cx="254.6" cy="224" r="6"/>
<text x="620.0" y="228.0" text-anchor="start" class="b" style="font-size:12px">-2.37  (72.85 → 70.48)</text>
<text x="176.0" y="260.0" text-anchor="end">TruthfulQA MC1</text>
<line x1="360.2" y1="256" x2="600.0" y2="256" style="stroke:var(--rule);stroke-width:6;stroke-linecap:round"/>
<circle class="s1f ring" cx="535.4" cy="256" r="6"/>
<text x="620.0" y="260.0" text-anchor="start" class="t2" style="font-size:12px">+0.37  (38.8 → 39.17)</text>
<text x="24.0" y="318.0" text-anchor="start" class="t2" style="font-size:12px">평균 -0.43%p. 회색 띠 = W4 점수의 부트스트랩 SD(차이의 신뢰구간이 아님). 하락의 대부분은 WinoGrande 하나입니다.</text>
<text x="24.0" y="338.0" text-anchor="start" class="mu">출처: Why Does Post-Training Quantization Work? (arXiv:2609.11716) Fig. 4(A)</text>
<text x="24.0" y="353.0" text-anchor="start" class="mu">생성: python scripts/figures/ptq_figures.py · 손으로 고치지 말 것</text>
</svg>
